HIERARCHY
ROOT Hips
{
	OFFSET 0.000000 83.214638 0.000000
	CHANNELS 6 Xposition Yposition Zposition Xrotation Yrotation Zrotation
	JOINT Pelvis
	{
		OFFSET 0.000000 0.000000 0.000000
		CHANNELS 3 Xrotation Yrotation Zrotation
		JOINT LeftUpLeg
		{
			OFFSET 8.479700 -4.795502 -0.379100
			CHANNELS 3 Xrotation Yrotation Zrotation
			JOINT LeftLeg
			{
				OFFSET 0.024144 -32.555107 0.112900
				CHANNELS 3 Xrotation Yrotation Zrotation
				JOINT LeftFoot
				{
					OFFSET -0.024144 -32.638630 -3.012600
					CHANNELS 3 Xrotation Yrotation Zrotation
					JOINT LeftToeBase
					{
						OFFSET 0.970200 -13.225400 11.864200
						CHANNELS 3 Xrotation Yrotation Zrotation
						End Site
						{
							OFFSET 0.000000 12.319262 0.000000
						}
					}
					JOINT LFootTongue
					{
						OFFSET 1.142400 -1.059800 6.665200
						CHANNELS 3 Xrotation Yrotation Zrotation
						End Site
						{
							OFFSET 0.000000 12.319262 0.000000
						}
					}
				}
				JOINT LeftPantLeg
				{
					OFFSET 0.918482 -16.533964 -2.284700
					CHANNELS 3 Xrotation Yrotation Zrotation
					End Site
					{
						OFFSET 0.350399 24.744368 0.000000
					}
				}
			}
		}
		JOINT RightUpLeg
		{
			OFFSET -8.479700 -4.795502 -0.379100
			CHANNELS 3 Xrotation Yrotation Zrotation
			JOINT RightLeg
			{
				OFFSET -0.023144 -32.555092 0.112900
				CHANNELS 3 Xrotation Yrotation Zrotation
				JOINT RightFoot
				{
					OFFSET 0.023144 -32.638641 -3.012700
					CHANNELS 3 Xrotation Yrotation Zrotation
					JOINT RightToeBase
					{
						OFFSET -0.970200 -13.225400 11.864200
						CHANNELS 3 Xrotation Yrotation Zrotation
						End Site
						{
							OFFSET 0.000000 12.319244 0.000000
						}
					}
					JOINT RFootTongue
					{
						OFFSET -1.142200 -1.059800 6.665200
						CHANNELS 3 Xrotation Yrotation Zrotation
						End Site
						{
							OFFSET 0.000000 12.319243 0.000000
						}
					}
				}
				JOINT RightPantLeg
				{
					OFFSET -0.919482 -16.533978 -2.284800
					CHANNELS 3 Xrotation Yrotation Zrotation
					End Site
					{
						OFFSET -0.350400 24.744419 0.000000
					}
				}
			}
		}
	}
	JOINT Spine
	{
		OFFSET 0.000000 7.722000 1.166200
		CHANNELS 3 Xrotation Yrotation Zrotation
		JOINT Spine1
		{
			OFFSET 0.000000 12.024101 0.248800
			CHANNELS 3 Xrotation Yrotation Zrotation
			JOINT Spine2
			{
				OFFSET 0.000000 11.502998 -0.491200
				CHANNELS 3 Xrotation Yrotation Zrotation
				JOINT Neck
				{
					OFFSET 0.000000 18.430702 -3.123100
					CHANNELS 3 Xrotation Yrotation Zrotation
					JOINT Head
					{
						OFFSET 0.000000 9.051102 1.034000
						CHANNELS 3 Xrotation Yrotation Zrotation
						JOINT HairB
						{
							OFFSET 0.208400 24.786102 24.822300
							CHANNELS 3 Xrotation Yrotation Zrotation
							End Site
							{
								OFFSET 0.000000 32.263779 0.000000
							}
						}
						JOINT HairA
						{
							OFFSET -7.081100 24.428299 23.196600
							CHANNELS 3 Xrotation Yrotation Zrotation
							End Site
							{
								OFFSET 0.000000 32.263779 0.000000
							}
						}
						JOINT Hat
						{
							OFFSET 16.728800 15.048294 -15.439601
							CHANNELS 3 Xrotation Yrotation Zrotation
							End Site
							{
								OFFSET 0.000000 32.263779 0.000000
							}
						}
					}
				}
				JOINT LeftShoulder
				{
					OFFSET 6.197800 13.665199 -4.064700
					CHANNELS 3 Xrotation Yrotation Zrotation
					JOINT LeftArm
					{
						OFFSET 7.778100 -0.187103 -1.709300
						CHANNELS 3 Xrotation Yrotation Zrotation
						JOINT LeftForeArm
						{
							OFFSET 22.049376 0.000000 0.000000
							CHANNELS 3 Xrotation Yrotation Zrotation
							JOINT LeftHand
							{
								OFFSET 23.009392 0.000000 0.000000
								CHANNELS 3 Xrotation Yrotation Zrotation
								JOINT LeftHandThumb1
								{
									OFFSET 3.507191 -2.063065 3.133727
									CHANNELS 3 Xrotation Yrotation Zrotation
									JOINT LeftHandThumb2
									{
										OFFSET 3.101337 -1.790558 1.790558
										CHANNELS 3 Xrotation Yrotation Zrotation
										JOINT LeftHandThumb3
										{
											OFFSET 3.058640 -1.765907 1.765906
											CHANNELS 3 Xrotation Yrotation Zrotation
											End Site
											{
												OFFSET -0.415260 3.926476 -0.049563
											}
										}
									}
								}
								JOINT LeftHandIndex1
								{
									OFFSET 11.334419 -0.901459 3.706815
									CHANNELS 3 Xrotation Yrotation Zrotation
									JOINT LeftHandIndex2
									{
										OFFSET 3.283112 0.000000 0.000000
										CHANNELS 3 Xrotation Yrotation Zrotation
										JOINT LeftHandIndex3
										{
											OFFSET 3.323853 0.000000 0.000000
											CHANNELS 3 Xrotation Yrotation Zrotation
											End Site
											{
												OFFSET -1.135597 3.097809 0.402452
											}
										}
									}
								}
								JOINT LeftHandMiddle1
								{
									OFFSET 11.335861 0.000000 0.000000
									CHANNELS 3 Xrotation Yrotation Zrotation
									JOINT LeftHandMiddle2
									{
										OFFSET 3.410492 0.000000 0.000000
										CHANNELS 3 Xrotation Yrotation Zrotation
										JOINT LeftHandMiddle3
										{
											OFFSET 3.312172 0.000000 0.000000
											CHANNELS 3 Xrotation Yrotation Zrotation
											End Site
											{
												OFFSET -1.150200 3.080154 0.400270
											}
										}
									}
								}
								JOINT LeftHandRing1
								{
									OFFSET 11.514786 -0.013176 -3.003090
									CHANNELS 3 Xrotation Yrotation Zrotation
									JOINT LeftHandRing2
									{
										OFFSET 3.053307 0.000000 0.000000
										CHANNELS 3 Xrotation Yrotation Zrotation
										JOINT LeftHandRing3
										{
											OFFSET 3.295807 0.000000 0.000000
											CHANNELS 3 Xrotation Yrotation Zrotation
											End Site
											{
												OFFSET -1.281006 3.013344 0.375733
											}
										}
									}
								}
								JOINT LeftHandPinky1
								{
									OFFSET 10.518692 -0.960396 -5.730441
									CHANNELS 3 Xrotation Yrotation Zrotation
									JOINT LeftHandPinky2
									{
										OFFSET 2.861649 0.000000 0.000000
										CHANNELS 3 Xrotation Yrotation Zrotation
										JOINT LeftHandPinky3
										{
											OFFSET 2.863380 0.000000 0.000000
											CHANNELS 3 Xrotation Yrotation Zrotation
											End Site
											{
												OFFSET -0.843597 2.711159 0.369971
											}
										}
									}
								}
							}
							JOINT LSleeve
							{
								OFFSET 6.676277 -0.344902 -1.011730
								CHANNELS 3 Xrotation Yrotation Zrotation
								End Site
								{
									OFFSET 0.000000 14.885353 0.000000
								}
							}
						}
					}
				}
				JOINT RightShoulder
				{
					OFFSET -6.197800 13.665199 -4.064700
					CHANNELS 3 Xrotation Yrotation Zrotation
					JOINT RightArm
					{
						OFFSET -7.778100 -0.187103 -1.709300
						CHANNELS 3 Xrotation Yrotation Zrotation
						JOINT RightForeArm
						{
							OFFSET -22.049376 0.000000 0.000000
							CHANNELS 3 Xrotation Yrotation Zrotation
							JOINT RightHand
							{
								OFFSET -23.009392 0.000000 0.000000
								CHANNELS 3 Xrotation Yrotation Zrotation
								JOINT RightHandThumb1
								{
									OFFSET -3.507191 -2.063065 3.133727
									CHANNELS 3 Xrotation Yrotation Zrotation
									JOINT RightHandThumb2
									{
										OFFSET -3.101337 -1.790558 1.790558
										CHANNELS 3 Xrotation Yrotation Zrotation
										JOINT RightHandThumb3
										{
											OFFSET -3.058640 -1.765907 1.765906
											CHANNELS 3 Xrotation Yrotation Zrotation
											End Site
											{
												OFFSET 0.415260 3.926476 -0.049563
											}
										}
									}
								}
								JOINT RightHandIndex1
								{
									OFFSET -11.334419 -0.901459 3.706815
									CHANNELS 3 Xrotation Yrotation Zrotation
									JOINT RightHandIndex2
									{
										OFFSET -3.283112 0.000000 0.000000
										CHANNELS 3 Xrotation Yrotation Zrotation
										JOINT RightHandIndex3
										{
											OFFSET -3.323853 0.000000 0.000000
											CHANNELS 3 Xrotation Yrotation Zrotation
											End Site
											{
												OFFSET 1.135597 3.097809 0.402452
											}
										}
									}
								}
								JOINT RightHandMiddle1
								{
									OFFSET -11.335861 0.000000 0.000000
									CHANNELS 3 Xrotation Yrotation Zrotation
									JOINT RightHandMiddle2
									{
										OFFSET -3.410492 0.000000 0.000000
										CHANNELS 3 Xrotation Yrotation Zrotation
										JOINT RightHandMiddle3
										{
											OFFSET -3.312172 0.000000 0.000000
											CHANNELS 3 Xrotation Yrotation Zrotation
											End Site
											{
												OFFSET 1.150200 3.080154 0.400270
											}
										}
									}
								}
								JOINT RightHandRing1
								{
									OFFSET -11.514786 -0.013176 -3.003090
									CHANNELS 3 Xrotation Yrotation Zrotation
									JOINT RightHandRing2
									{
										OFFSET -3.053307 0.000000 0.000000
										CHANNELS 3 Xrotation Yrotation Zrotation
										JOINT RightHandRing3
										{
											OFFSET -3.295807 0.000000 0.000000
											CHANNELS 3 Xrotation Yrotation Zrotation
											End Site
											{
												OFFSET 1.281006 3.013344 0.375733
											}
										}
									}
								}
								JOINT RightHandPinky1
								{
									OFFSET -10.518692 -0.960396 -5.730441
									CHANNELS 3 Xrotation Yrotation Zrotation
									JOINT RightHandPinky2
									{
										OFFSET -2.861649 0.000000 0.000000
										CHANNELS 3 Xrotation Yrotation Zrotation
										JOINT RightHandPinky3
										{
											OFFSET -2.863380 0.000000 0.000000
											CHANNELS 3 Xrotation Yrotation Zrotation
											End Site
											{
												OFFSET 0.843597 2.711159 0.369971
											}
										}
									}
								}
							}
							JOINT RSleeve
							{
								OFFSET -6.676277 -0.344902 -1.011730
								CHANNELS 3 Xrotation Yrotation Zrotation
								End Site
								{
									OFFSET 0.000000 14.885353 0.000000
								}
							}
						}
					}
				}
				JOINT Backpack
				{
					OFFSET 0.000000 -2.471497 36.677502
					CHANNELS 3 Xrotation Yrotation Zrotation
					End Site
					{
						OFFSET 0.000000 20.427315 0.000000
					}
				}
				JOINT Hood
				{
					OFFSET 0.000000 18.754097 -10.431000
					CHANNELS 3 Xrotation Yrotation Zrotation
					JOINT Hood1
					{
						OFFSET 0.000000 -5.011002 -7.685901
						CHANNELS 3 Xrotation Yrotation Zrotation
						End Site
						{
							OFFSET 0.000000 9.175140 0.000000
						}
					}
				}
				JOINT LHoodieString
				{
					OFFSET 5.250500 16.397697 3.089900
					CHANNELS 3 Xrotation Yrotation Zrotation
					JOINT LHoodieString1
					{
						OFFSET 0.257700 -6.364304 3.694600
						CHANNELS 3 Xrotation Yrotation Zrotation
						JOINT LHoodieString2
						{
							OFFSET 0.000000 -9.643799 2.679100
							CHANNELS 3 Xrotation Yrotation Zrotation
							End Site
							{
								OFFSET 0.000000 10.009018 0.000000
							}
						}
					}
				}
				JOINT RHoodieString
				{
					OFFSET -5.250500 16.397697 3.089900
					CHANNELS 3 Xrotation Yrotation Zrotation
					JOINT RHoodieString1
					{
						OFFSET -0.257700 -6.364304 3.694600
						CHANNELS 3 Xrotation Yrotation Zrotation
						JOINT RHoodieString2
						{
							OFFSET 0.000000 -9.643799 2.679100
							CHANNELS 3 Xrotation Yrotation Zrotation
							End Site
							{
								OFFSET 0.000000 10.009018 0.000000
							}
						}
					}
				}
			}
			JOINT LBackpack_Strap
			{
				OFFSET 15.223200 -7.719803 -6.610900
				CHANNELS 3 Xrotation Yrotation Zrotation
				End Site
				{
					OFFSET 0.000000 16.040596 0.000000
				}
			}
			JOINT RBackpack_Strap
			{
				OFFSET -15.223000 -7.719803 -6.610900
				CHANNELS 3 Xrotation Yrotation Zrotation
				End Site
				{
					OFFSET 0.000000 16.040596 0.000000
				}
			}
		}
	}
	JOINT BoyFacialAnim_Joint
	{
		OFFSET 1.000000 -82.208099 -1.550900
		CHANNELS 3 Xrotation Yrotation Zrotation
		End Site
		{
			OFFSET 0.000000 30.012791 0.000000
		}
	}
}
MOTION
Frames: 4
Frame Time: 0.033333
-1.540312 69.909500 2.243887 -33.541970 -121.622324 -21.919790 0.000000 0.000001 0.000000 -68.053000 -0.212903 -12.833928 60.704543 -7.452223 0.330447 -7.355225 -29.737131 1.553970 -0.000000 -0.000001 0.000000 -0.000000 -0.000001 -0.000000 -0.000000 -0.000000 0.000000 -45.586800 4.080157 -7.615455 80.443168 8.381037 -9.875658 -8.013192 4.027170 -1.391513 0.000000 0.000000 0.000000 0.000000 0.000000 0.000000 0.000004 0.000001 -0.000001 17.340045 -2.271169 -6.987923 -1.230571 0.098034 -1.792831 -1.232173 0.011655 -1.795427 2.829212 12.504626 0.940915 0.247656 68.949612 -24.133271 -0.000000 0.000001 -0.000001 -0.000000 0.000001 -0.000001 -0.000000 0.000001 -0.000001 1.158976 -13.522892 -10.386514 -112.017568 -65.113286 -94.260183 -0.001300 -90.752068 -0.001431 -20.551872 -21.504040 -9.500738 -3.038174 18.722003 -12.520721 12.000688 21.632242 5.115103 -0.000001 -0.000001 -0.000002 0.077741 1.033885 -8.600225 0.327501 2.102186 -17.707825 -0.000001 -0.000003 -0.000002 0.077451 1.031973 -8.584242 0.328087 2.104014 -17.723820 -0.000001 0.000000 -0.000003 0.077745 1.033884 -8.600232 0.327501 2.102193 -17.707843 0.000001 -0.000000 -0.000002 0.667966 5.045119 -8.121115 0.328120 -1.954985 -18.194727 -0.000000 -0.000000 0.000001 -0.000002 0.000000 0.000002 0.825345 3.487888 2.540964 -64.542071 -25.514926 2.449797 0.000002 138.020624 0.000006 -16.433568 21.432644 -47.132519 33.992759 -17.793698 4.582348 40.959214 -9.124554 0.220398 -0.000000 0.000001 0.000001 5.552920 -6.807385 78.387595 7.266712 -6.940974 92.633491 -0.000002 0.000001 0.000004 5.552906 -6.807382 78.387602 7.266708 -6.940971 92.633484 0.000002 0.000001 0.000002 5.552910 -6.807357 78.387588 7.266695 -6.940975 92.633471 -0.000001 0.000000 0.000000 5.552900 -6.807348 78.387609 7.266714 -6.940995 92.633471 0.000001 0.000000 0.000000 0.000000 0.000001 0.000004 -0.000001 -0.000001 0.000001 -0.000001 -0.000001 0.000001 -0.000001 -0.000001 0.000001 -0.000001 -0.000001 0.000001 -0.000001 -0.000001 0.000001 -0.000001 0.000001 0.000000 -0.000001 -0.000001 0.000001 -0.000001 -0.000001 0.000001 -0.000001 0.000001 0.000000 0.000002 0.000001 -0.000000 0.000002 0.000001 -0.000000 0.000000 0.000001 0.000000 
-1.545199 69.765953 2.159048 -33.014512 -121.467360 -21.439518 0.000001 0.000000 -0.000000 -68.068566 -0.184593 -12.769018 61.243397 -7.389294 0.165210 -7.220651 -29.727524 1.635443 -0.000000 -0.000000 -0.000000 -0.000000 -0.000000 -0.000000 0.000000 0.000005 -0.000000 -45.271921 4.195101 -7.497996 80.857938 8.275382 -9.888604 -8.472057 4.265413 -1.308303 0.000001 -0.000000 -0.000002 0.000001 -0.000000 -0.000002 -0.000000 0.000000 0.000001 17.463230 -2.264478 -6.894979 -1.291347 0.116950 -1.867531 -1.292867 0.026353 -1.871048 2.911639 12.434932 1.017477 -0.008608 68.712448 -23.845041 0.000001 0.000003 -0.000001 0.000001 0.000003 -0.000001 0.000001 0.000003 -0.000001 1.269264 -13.445510 -9.179752 -110.818931 -64.331851 -93.187993 0.000732 -90.999205 0.000636 -20.284111 -22.396103 -8.652689 -3.038170 18.722001 -12.520727 12.000691 21.632249 5.115100 -0.000001 -0.000000 0.000002 0.077741 1.033883 -8.600230 0.327499 2.102187 -17.707831 -0.000001 -0.000001 -0.000002 0.077454 1.031973 -8.584250 0.328086 2.104015 -17.723825 -0.000000 0.000001 -0.000001 0.077742 1.033883 -8.600234 0.327500 2.102195 -17.707839 0.000001 0.000000 -0.000004 0.667965 5.045118 -8.121121 0.328117 -1.954988 -18.194738 0.000000 0.000001 0.000003 0.000002 0.000001 0.000002 0.888902 4.150017 2.527401 -65.609315 -26.096153 1.824915 0.000002 138.199302 0.000000 -16.590827 21.034447 -46.484140 33.992759 -17.793695 4.582348 40.959214 -9.124555 0.220398 0.000002 0.000001 0.000001 5.552921 -6.807385 78.387595 7.266712 -6.940977 92.633491 -0.000001 0.000000 0.000004 5.552906 -6.807381 78.387602 7.266710 -6.940968 92.633484 0.000000 0.000000 -0.000000 5.552908 -6.807355 78.387595 7.266695 -6.940974 92.633471 -0.000002 0.000000 0.000000 5.552902 -6.807349 78.387615 7.266713 -6.940998 92.633471 0.000001 -0.000001 0.000000 -0.000000 -0.000000 -0.000002 0.000001 -0.000002 -0.000000 0.000001 -0.000002 -0.000000 0.000001 -0.000002 -0.000000 0.000001 -0.000002 -0.000000 0.000001 -0.000002 -0.000000 -0.000001 0.000000 -0.000000 0.000001 -0.000002 -0.000000 0.000001 -0.000002 -0.000000 -0.000001 0.000000 -0.000000 0.000002 -0.000002 0.000001 0.000002 -0.000002 0.000001 0.000001 0.000000 -0.000000 
-1.544647 69.649536 2.106607 -32.382019 -121.361875 -20.818198 -0.000000 -0.000001 0.000000 -67.993748 -0.094003 -12.579588 61.646904 -7.320611 -0.156597 -6.976567 -29.715759 1.756580 -0.000000 -0.000000 -0.000000 -0.000000 -0.000000 -0.000000 -0.000000 -0.000000 -0.000000 -44.951121 4.284947 -7.523144 81.195991 8.162585 -9.898647 -8.894534 4.661520 -1.290881 0.000001 0.000001 -0.000000 0.000001 0.000001 -0.000000 0.000002 -0.000000 0.000000 17.588331 -2.266210 -6.862532 -1.331606 0.129801 -1.904302 -1.333074 0.036411 -1.908723 3.041999 12.391260 0.996843 0.015764 68.549575 -23.832506 -0.000000 0.000004 -0.000001 -0.000000 0.000004 -0.000001 -0.000000 0.000004 -0.000001 1.408119 -13.277298 -7.547982 -109.102430 -62.939722 -91.860573 0.004041 -91.339198 0.004201 -19.649437 -23.440646 -8.234460 -3.038169 18.721999 -12.520723 12.000694 21.632247 5.115103 -0.000002 -0.000001 0.000001 0.077743 1.033884 -8.600233 0.327500 2.102189 -17.707831 -0.000001 0.000001 -0.000003 0.077453 1.031974 -8.584250 0.328090 2.104019 -17.723824 0.000001 0.000000 -0.000002 0.077745 1.033883 -8.600231 0.327496 2.102190 -17.707837 0.000002 0.000000 -0.000002 0.667969 5.045119 -8.121112 0.328119 -1.954984 -18.194731 0.000001 -0.000001 0.000005 -0.000002 0.000001 -0.000001 0.954187 4.803223 2.360013 -66.743987 -26.741809 1.530168 -0.000018 138.410669 0.000009 -16.864471 20.514707 -45.407125 33.992759 -17.793700 4.582348 40.959210 -9.124553 0.220399 -0.000003 0.000001 0.000001 5.552918 -6.807385 78.387595 7.266712 -6.940978 92.633491 -0.000003 0.000000 0.000000 5.552905 -6.807381 78.387595 7.266706 -6.940968 92.633484 0.000002 0.000000 0.000003 5.552907 -6.807357 78.387588 7.266695 -6.940976 92.633478 -0.000001 0.000000 0.000000 5.552902 -6.807349 78.387615 7.266713 -6.940996 92.633471 -0.000001 -0.000000 0.000000 0.000000 0.000000 -0.000001 -0.000003 0.000000 -0.000000 -0.000003 0.000000 -0.000000 -0.000003 0.000000 -0.000000 -0.000003 0.000000 -0.000000 -0.000003 0.000000 0.000000 -0.000001 -0.000001 -0.000000 -0.000003 0.000000 -0.000000 -0.000003 0.000000 0.000000 -0.000001 -0.000001 -0.000000 -0.000000 -0.000001 0.000000 -0.000000 -0.000001 0.000000 -0.000000 -0.000001 0.000000 
-1.560820 69.571274 2.114283 -31.504586 -121.417554 -19.942865 -0.000001 -0.000001 0.000001 -67.758461 0.035107 -12.252530 61.899996 -7.263973 -0.572291 -6.799932 -29.705749 1.859654 -0.000000 0.000000 -0.000000 -0.000000 0.000000 0.000000 0.000000 -0.000002 0.000000 -44.646115 4.332307 -7.739176 81.408068 8.094610 -9.903270 -9.188224 5.165802 -1.369353 -0.000001 0.000000 0.000000 -0.000001 0.000000 0.000000 0.000002 -0.000000 0.000000 17.563929 -2.227469 -6.925907 -1.319466 0.137915 -1.868852 -1.321152 0.045416 -1.874212 3.198436 12.394728 0.847254 0.296660 68.527623 -24.073675 -0.000000 0.000000 0.000001 -0.000000 0.000000 0.000001 -0.000000 0.000000 0.000001 1.545163 -13.121976 -5.828208 -107.065804 -61.200435 -90.426404 0.009963 -91.692831 0.009942 -18.448390 -24.340754 -8.156076 -3.038172 18.721996 -12.520726 12.000692 21.632249 5.115103 -0.000001 -0.000004 0.000001 0.077742 1.033883 -8.600228 0.327499 2.102189 -17.707825 0.000000 0.000000 -0.000004 0.077451 1.031972 -8.584248 0.328087 2.104017 -17.723820 0.000002 0.000001 0.000000 0.077743 1.033881 -8.600228 0.327498 2.102194 -17.707837 -0.000001 0.000000 -0.000007 0.667967 5.045116 -8.121113 0.328121 -1.954984 -18.194731 -0.000000 0.000001 0.000002 0.000001 -0.000001 -0.000002 1.012395 5.347742 2.088502 -67.459060 -27.227443 1.457482 -0.000036 138.572039 0.000037 -17.129037 20.060795 -44.346940 33.992762 -17.793695 4.582348 40.959214 -9.124556 0.220400 0.000001 0.000001 -0.000000 5.552919 -6.807384 78.387588 7.266711 -6.940979 92.633491 0.000000 -0.000000 0.000002 5.552908 -6.807381 78.387595 7.266708 -6.940969 92.633491 0.000003 0.000000 -0.000000 5.552910 -6.807356 78.387588 7.266695 -6.940977 92.633478 0.000001 -0.000001 0.000002 5.552902 -6.807347 78.387609 7.266713 -6.940994 92.633471 -0.000000 0.000000 -0.000001 -0.000000 -0.000000 -0.000005 -0.000000 -0.000000 0.000000 -0.000000 -0.000000 0.000000 -0.000000 -0.000000 0.000000 -0.000000 -0.000000 0.000000 -0.000000 -0.000000 0.000000 -0.000000 -0.000000 -0.000000 -0.000000 -0.000000 0.000000 -0.000000 -0.000000 0.000000 -0.000000 -0.000000 -0.000000 0.000000 0.000002 -0.000001 0.000000 0.000002 -0.000001 -0.000001 -0.000001 0.000001 
